<svg width="18" height="22" viewBox="0 0 18 22" fill="none" xmlns="http://www.w3.org/2000/svg">
<path d="M3.34152 3.42321C6.46065 0.192263 11.539 0.192263 14.6596 3.42321C17.7801 6.65416 17.7801 11.9106 14.6596 15.1416L9.00126 21L3.34296 15.1416C1.83244 13.5761 1 11.4969 1 9.28314C1 7.06942 1.83244 4.98865 3.3444 3.42471L3.34152 3.42321Z" stroke="#808080" stroke-width="2" stroke-linecap="round" stroke-linejoin="round"/>
<path d="M9.00078 12.2008C10.7681 12.2008 12.2008 10.7681 12.2008 9.00078C12.2008 7.23347 10.7681 5.80078 9.00078 5.80078C7.23347 5.80078 5.80078 7.23347 5.80078 9.00078C5.80078 10.7681 7.23347 12.2008 9.00078 12.2008Z" stroke="#808080" stroke-width="2" stroke-miterlimit="10"/>
</svg>
