<svg xmlns="http://www.w3.org/2000/svg" width="56" height="62" viewBox="0 0 56 62" fill="none">
  <g filter="url(#filter0_d_43_3172)">
    <path d="M46 29.1054V9.22884C46 8.52842 45.2935 8.03025 44.6221 8.22991C41.5302 9.14945 33.8519 10.8988 28 7.77778C21.6101 4.36985 13.0427 6.76891 10.6464 7.55378C10.252 7.68294 10 8.05199 10 8.46693V28.2906C10 29.0007 10.7246 29.5014 11.4015 29.2867C14.5089 28.3014 22.163 26.4485 28 29.7778C34.4092 33.4334 43.0092 30.8411 45.3752 30.0098C45.7588 29.875 46 29.512 46 29.1054Z" fill="#05CBBE" stroke="white" stroke-width="4"/>
    <path d="M10 6L10 48" stroke="white" stroke-width="4" stroke-linecap="round"/>
  </g>
  <defs>
    <filter id="filter0_d_43_3172" x="0" y="0" width="56" height="62" filterUnits="userSpaceOnUse" color-interpolation-filters="sRGB">
      <feFlood flood-opacity="0" result="BackgroundImageFix"/>
      <feColorMatrix in="SourceAlpha" type="matrix" values="0 0 0 0 0 0 0 0 0 0 0 0 0 0 0 0 0 0 127 0" result="hardAlpha"/>
      <feOffset dy="4"/>
      <feGaussianBlur stdDeviation="4"/>
      <feComposite in2="hardAlpha" operator="out"/>
      <feColorMatrix type="matrix" values="0 0 0 0 0.0196078 0 0 0 0 0.796078 0 0 0 0 0.745098 0 0 0 0.16 0"/>
      <feBlend mode="normal" in2="BackgroundImageFix" result="effect1_dropShadow_43_3172"/>
      <feBlend mode="normal" in="SourceGraphic" in2="effect1_dropShadow_43_3172" result="shape"/>
    </filter>
  </defs>
</svg>