<svg xmlns="http://www.w3.org/2000/svg" width="142" height="26" viewBox="0 0 142 26" fill="none">
  <path d="M21 13.9221V3.48174C21 2.77728 20.285 2.27328 19.6041 2.4541C17.6207 2.98087 13.9052 3.60959 11 2.01587C7.66824 0.188164 3.27081 1.28341 1.6423 1.79572C1.24979 1.9192 1 2.28658 1 2.69806V13.084C1 13.7984 1.73571 14.305 2.42329 14.1109C4.41339 13.5492 8.10812 12.8907 11 14.5873C14.3459 16.5502 18.7665 15.3606 20.3783 14.8158C20.76 14.6868 21 14.3251 21 13.9221Z" fill="#05CBBE" stroke="#D9D9D9" stroke-width="2"/>
  <path d="M1 1L1 25" stroke="#D9D9D9" stroke-width="2" stroke-linecap="round"/>
  <path d="M51 13.9221V3.48174C51 2.77728 50.285 2.27328 49.6041 2.4541C47.6207 2.98087 43.9052 3.60959 41 2.01587C37.6682 0.188164 33.2708 1.28341 31.6423 1.79572C31.2498 1.9192 31 2.28658 31 2.69806V13.084C31 13.7984 31.7357 14.305 32.4233 14.1109C34.4134 13.5492 38.1081 12.8907 41 14.5873C44.3459 16.5502 48.7665 15.3606 50.3783 14.8158C50.76 14.6868 51 14.3251 51 13.9221Z" fill="#05CBBE" stroke="#D9D9D9" stroke-width="2"/>
  <path d="M31 1V25" stroke="#D9D9D9" stroke-width="2" stroke-linecap="round"/>
  <path d="M111 13.9221V3.48174C111 2.77728 110.285 2.27328 109.604 2.4541C107.621 2.98087 103.905 3.60959 101 2.01587C97.6682 0.188164 93.2708 1.28341 91.6423 1.79572C91.2498 1.9192 91 2.28658 91 2.69806V13.084C91 13.7984 91.7357 14.305 92.4233 14.1109C94.4134 13.5492 98.1081 12.8907 101 14.5873C104.346 16.5502 108.767 15.3606 110.378 14.8158C110.76 14.6868 111 14.3251 111 13.9221Z" fill="white" stroke="#D9D9D9" stroke-width="2"/>
  <path d="M91 1V25" stroke="#D9D9D9" stroke-width="2" stroke-linecap="round"/>
  <path d="M141 13.9221V3.48174C141 2.77728 140.285 2.27328 139.604 2.4541C137.621 2.98087 133.905 3.60959 131 2.01587C127.668 0.188164 123.271 1.28341 121.642 1.79572C121.25 1.9192 121 2.28658 121 2.69806V13.084C121 13.7984 121.736 14.305 122.423 14.1109C124.413 13.5492 128.108 12.8907 131 14.5873C134.346 16.5502 138.767 15.3606 140.378 14.8158C140.76 14.6868 141 14.3251 141 13.9221Z" fill="white" stroke="#D9D9D9" stroke-width="2"/>
  <path d="M121 1V25" stroke="#D9D9D9" stroke-width="2" stroke-linecap="round"/>
  <path d="M81 13.9221V3.48174C81 2.77728 80.285 2.27328 79.6041 2.4541C77.6207 2.98087 73.9052 3.60959 71 2.01587C67.6682 0.188164 63.2708 1.28341 61.6423 1.79572C61.2498 1.9192 61 2.28658 61 2.69806V13.084C61 13.7984 61.7357 14.305 62.4233 14.1109C64.4134 13.5492 68.1081 12.8907 71 14.5873C74.3459 16.5502 78.7665 15.3606 80.3783 14.8158C80.76 14.6868 81 14.3251 81 13.9221Z" fill="#05CBBE" stroke="#D9D9D9" stroke-width="2"/>
  <path d="M61 1V25" stroke="#D9D9D9" stroke-width="2" stroke-linecap="round"/>
</svg>