<svg xmlns="http://www.w3.org/2000/svg" width="38" height="42" viewBox="0 0 38 42" fill="none">
  <g filter="url(#filter0_d_26_4244)">
    <path d="M29 17.9221V7.48174C29 6.77728 28.285 6.27328 27.6041 6.4541C25.6207 6.98087 21.9052 7.60959 19 6.01587C15.6682 4.18816 11.2708 5.28341 9.6423 5.79572C9.24979 5.9192 9 6.28658 9 6.69806V17.084C9 17.7984 9.73571 18.305 10.4233 18.1109C12.4134 17.5492 16.1081 16.8907 19 18.5873C22.3459 20.5502 26.7665 19.3606 28.3783 18.8158C28.76 18.6868 29 18.3251 29 17.9221Z" fill="#05CBBE" stroke="#D9D9D9" stroke-width="2"/>
    <path d="M9 5L9 29" stroke="#D9D9D9" stroke-width="2" stroke-linecap="round"/>
  </g>
  <defs>
    <filter id="filter0_d_26_4244" x="0" y="0" width="38" height="42" filterUnits="userSpaceOnUse" color-interpolation-filters="sRGB">
      <feFlood flood-opacity="0" result="BackgroundImageFix"/>
      <feColorMatrix in="SourceAlpha" type="matrix" values="0 0 0 0 0 0 0 0 0 0 0 0 0 0 0 0 0 0 127 0" result="hardAlpha"/>
      <feOffset dy="4"/>
      <feGaussianBlur stdDeviation="4"/>
      <feComposite in2="hardAlpha" operator="out"/>
      <feColorMatrix type="matrix" values="0 0 0 0 0.0196078 0 0 0 0 0.796078 0 0 0 0 0.745098 0 0 0 0.16 0"/>
      <feBlend mode="normal" in2="BackgroundImageFix" result="effect1_dropShadow_26_4244"/>
      <feBlend mode="normal" in="SourceGraphic" in2="effect1_dropShadow_26_4244" result="shape"/>
    </filter>
  </defs>
</svg>