<svg width="40" height="46" viewBox="0 0 40 46" fill="none" xmlns="http://www.w3.org/2000/svg">
<mask id="path-1-outside-1_1554_1202" maskUnits="userSpaceOnUse" x="0" y="0.519531" width="40" height="45" fill="black">
<rect fill="white" y="0.519531" width="40" height="45"/>
<path d="M7.91005 8.42581C7.90857 8.42506 7.90826 8.42307 7.90943 8.42189C14.4463 1.88461 25.087 1.88541 31.6259 8.42429C38.1655 14.964 38.1655 25.6034 31.6259 32.1431L22.5964 41.1726C21.0343 42.7347 18.5016 42.7347 16.9395 41.1726L7.91005 32.1431C4.74452 28.9746 3 24.7659 3 20.2852C3 15.8056 4.74364 11.595 7.91068 8.42971C7.91186 8.42854 7.91154 8.42655 7.91005 8.42581Z"/>
</mask>
<path d="M7.91005 8.42581C7.90857 8.42506 7.90826 8.42307 7.90943 8.42189C14.4463 1.88461 25.087 1.88541 31.6259 8.42429C38.1655 14.964 38.1655 25.6034 31.6259 32.1431L22.5964 41.1726C21.0343 42.7347 18.5016 42.7347 16.9395 41.1726L7.91005 32.1431C4.74452 28.9746 3 24.7659 3 20.2852C3 15.8056 4.74364 11.595 7.91068 8.42971C7.91186 8.42854 7.91154 8.42655 7.91005 8.42581Z" fill="#05CBBE"/>
<path d="M7.91005 8.42581C7.90857 8.42506 7.90826 8.42307 7.90943 8.42189C14.4463 1.88461 25.087 1.88541 31.6259 8.42429C38.1655 14.964 38.1655 25.6034 31.6259 32.1431L22.5964 41.1726C21.0343 42.7347 18.5016 42.7347 16.9395 41.1726L7.91005 32.1431C4.74452 28.9746 3 24.7659 3 20.2852C3 15.8056 4.74364 11.595 7.91068 8.42971C7.91186 8.42854 7.91154 8.42655 7.91005 8.42581Z" stroke="white" stroke-width="6" stroke-linecap="round" stroke-linejoin="round" mask="url(#path-1-outside-1_1554_1202)"/>
<mask id="path-2-inside-2_1554_1202" fill="white">
<path d="M22.9849 13.5117H16.9922C15.8876 13.5117 14.9922 14.4072 14.9922 15.5117V26.1114C14.9922 26.5016 15.4193 26.7415 15.7525 26.5383L19.9885 23.9557L24.2246 26.5383C24.5578 26.7415 24.9849 26.5016 24.9849 26.1114V15.5117C24.9849 14.4071 24.0894 13.5117 22.9849 13.5117Z"/>
</mask>
<path d="M22.9849 13.5117H16.9922C15.8876 13.5117 14.9922 14.4072 14.9922 15.5117V26.1114C14.9922 26.5016 15.4193 26.7415 15.7525 26.5383L19.9885 23.9557L24.2246 26.5383C24.5578 26.7415 24.9849 26.5016 24.9849 26.1114V15.5117C24.9849 14.4071 24.0894 13.5117 22.9849 13.5117Z" fill="white" stroke="white" stroke-width="2" stroke-linecap="round" stroke-linejoin="round" mask="url(#path-2-inside-2_1554_1202)"/>
</svg>
