<svg width="40" height="46" viewBox="0 0 40 46" fill="none" xmlns="http://www.w3.org/2000/svg">
<path d="M6.84874 7.36126L6.84856 7.36145C6.81397 7.39604 6.78147 7.43186 6.75103 7.46874C3.36506 10.9042 1.5 15.455 1.5 20.2852C1.5 25.164 3.40269 29.7538 6.84889 33.2033L6.84939 33.2038L15.8789 42.2333C18.0267 44.3811 21.5092 44.3811 23.657 42.2333L32.6865 33.2038C39.812 26.0783 39.812 14.4891 32.6865 7.36363C25.562 0.23917 13.9716 0.237947 6.84874 7.36126ZM8.58087 7.08416C8.75178 7.16962 8.89699 7.28064 9.01577 7.40937C9.0157 7.40942 9.01563 7.40948 9.01557 7.40953C8.89639 7.2804 8.75112 7.16929 8.58087 7.08416Z" fill="#05CBBE" stroke="white" stroke-width="3" stroke-linecap="round" stroke-linejoin="round"/>
<path d="M20.2488 23.5288C20.089 23.4313 19.8881 23.4313 19.7283 23.5288L15.4922 26.1114L15.4922 15.5117C15.4922 14.6833 16.1638 14.0117 16.9922 14.0117H22.9849C23.8133 14.0117 24.4849 14.6833 24.4849 15.5117V26.1114L20.2488 23.5288Z" fill="white" stroke="white" stroke-linecap="round" stroke-linejoin="round"/>
</svg>
