<svg width="22" height="27" viewBox="0 0 22 27" fill="none" xmlns="http://www.w3.org/2000/svg">
<path d="M3.9269 4.02902C7.82582 -0.00967181 14.1737 -0.00967181 18.0745 4.02902C21.9752 8.0677 21.9752 14.6383 18.0745 18.677L11.0016 26L3.9287 18.677C2.04055 16.7202 1 14.1211 1 11.3539C1 8.58678 2.04055 5.98581 3.9305 4.03088L3.9269 4.02902Z" fill="#333333" stroke="#333333" stroke-width="2" stroke-linecap="round" stroke-linejoin="round"/>
<path d="M11 15C13.2091 15 15 13.2091 15 11C15 8.79086 13.2091 7 11 7C8.79086 7 7 8.79086 7 11C7 13.2091 8.79086 15 11 15Z" fill="white" stroke="#333333" stroke-width="2" stroke-miterlimit="10"/>
</svg>
