<svg width="18" height="18" viewBox="0 0 18 18" fill="none" xmlns="http://www.w3.org/2000/svg">
<path d="M4.75614 3.81741C7.09549 1.3942 10.9042 1.3942 13.2447 3.81741C15.5851 6.24062 15.5851 10.183 13.2447 12.6062L9.00095 17L4.75722 12.6062C3.62433 11.4321 3 9.87264 3 8.21235C3 6.55207 3.62433 4.99149 4.7583 3.81853L4.75614 3.81741Z" stroke="#808080" stroke-linecap="round" stroke-linejoin="round"/>
<path d="M9.00156 10.4016C10.327 10.4016 11.4016 9.32705 11.4016 8.00156C11.4016 6.67608 10.327 5.60156 9.00156 5.60156C7.67608 5.60156 6.60156 6.67608 6.60156 8.00156C6.60156 9.32705 7.67608 10.4016 9.00156 10.4016Z" stroke="#808080" stroke-miterlimit="10"/>
</svg>
