<svg width="19" height="18" viewBox="0 0 19 18" fill="none" xmlns="http://www.w3.org/2000/svg">
<rect x="7" y="3" width="9" height="12" stroke="#808080" stroke-linejoin="round"/>
<path d="M13.795 8.20956L10.613 4.75274C10.1801 4.28242 9.45595 4.28242 9.02302 4.75274C8.61635 5.19453 8.61635 5.89184 9.02302 6.33363L9.46447 5.92728L9.02302 6.33363L10.4251 7.85681H2C1.34666 7.85681 0.9 8.4164 0.9 9C0.9 9.5836 1.34666 10.1432 2 10.1432H10.4251L9.02302 11.6664C8.61635 12.1082 8.61635 12.8055 9.02302 13.2473C9.45595 13.7176 10.1801 13.7176 10.613 13.2473L13.795 9.79044C14.2017 9.34866 14.2017 8.65134 13.795 8.20956Z" fill="#808080" stroke="white" stroke-width="1.2"/>
</svg>
