<svg width="17" height="14" viewBox="0 0 17 14" fill="none" xmlns="http://www.w3.org/2000/svg">
<rect x="7" y="1" width="9" height="12" stroke="#808080" stroke-linejoin="round"/>
<path d="M13.795 6.20956L10.613 2.75274C10.1801 2.28242 9.45595 2.28242 9.02302 2.75274C8.61635 3.19453 8.61635 3.89184 9.02302 4.33363L9.46447 3.92728L9.02302 4.33363L10.4251 5.85681H2C1.34666 5.85681 0.9 6.4164 0.9 7C0.9 7.5836 1.34666 8.14319 2 8.14319H10.4251L9.02302 9.66637C8.61635 10.1082 8.61635 10.8055 9.02302 11.2473C9.45595 11.7176 10.1801 11.7176 10.613 11.2473L13.795 7.79044C14.2017 7.34866 14.2017 6.65134 13.795 6.20956Z" fill="#808080" stroke="white" stroke-width="1.2"/>
</svg>
