<svg width="104" height="126" viewBox="0 0 104 126" fill="none" xmlns="http://www.w3.org/2000/svg">
<rect width="104" height="126" fill="#F5F5F5"/>
<path d="M-3456 -2650C-3456 -2651.1 -3455.1 -2652 -3454 -2652H8008C8009.1 -2652 8010 -2651.1 8010 -2650V8566C8010 8567.1 8009.1 8568 8008 8568H-3454C-3455.1 8568 -3456 8567.1 -3456 8566V-2650Z" fill="#ECECEC"/>
<path d="M-3454 -2651H8008V-2653H-3454V-2651ZM8009 -2650V8566H8011V-2650H8009ZM8008 8567H-3454V8569H8008V8567ZM-3455 8566V-2650H-3457V8566H-3455ZM-3454 8567C-3454.55 8567 -3455 8566.55 -3455 8566H-3457C-3457 8567.66 -3455.66 8569 -3454 8569V8567ZM8009 8566C8009 8566.55 8008.55 8567 8008 8567V8569C8009.66 8569 8011 8567.66 8011 8566H8009ZM8008 -2651C8008.55 -2651 8009 -2650.55 8009 -2650H8011C8011 -2651.66 8009.66 -2653 8008 -2653V-2651ZM-3454 -2653C-3455.66 -2653 -3457 -2651.66 -3457 -2650H-3455C-3455 -2650.55 -3454.55 -2651 -3454 -2651V-2653Z" fill="white" fill-opacity="0.1"/>
<rect width="393" height="852" transform="translate(-145 -331)" fill="white"/>
<path d="M5 82H62.75C68.1348 82 72.5 86.3652 72.5 91.75V91.75C72.5 97.1348 68.1348 101.5 62.75 101.5H40.5C35.2533 101.5 31 105.753 31 111V111C31 116.247 35.2533 120.5 40.5 120.5H99" stroke="#05CBBE" stroke-width="10" stroke-linecap="round"/>
<mask id="path-4-outside-1_0_1" maskUnits="userSpaceOnUse" x="12" y="0" width="80" height="91" fill="black">
<rect fill="white" x="12" width="80" height="91"/>
<path d="M27.8273 15.8197C27.8243 15.8182 27.8237 15.8142 27.8261 15.8119C40.9094 2.72776 62.2063 2.72937 75.2936 15.8167C88.3826 28.9057 88.3826 50.2001 75.2936 63.2891L55.8031 82.7796C53.46 85.1228 49.661 85.1228 47.3178 82.7796L27.8273 63.2891C21.4916 56.9473 18 48.5239 18 39.5559C18 30.5902 21.4898 22.1627 27.8286 15.8276C27.8309 15.8252 27.8303 15.8212 27.8273 15.8197Z"/>
</mask>
<path d="M27.8273 15.8197C27.8243 15.8182 27.8237 15.8142 27.8261 15.8119C40.9094 2.72776 62.2063 2.72937 75.2936 15.8167C88.3826 28.9057 88.3826 50.2001 75.2936 63.2891L55.8031 82.7796C53.46 85.1228 49.661 85.1228 47.3178 82.7796L27.8273 63.2891C21.4916 56.9473 18 48.5239 18 39.5559C18 30.5902 21.4898 22.1627 27.8286 15.8276C27.8309 15.8252 27.8303 15.8212 27.8273 15.8197Z" fill="#05CBBE"/>
<path d="M27.8273 15.8197C27.8243 15.8182 27.8237 15.8142 27.8261 15.8119C40.9094 2.72776 62.2063 2.72937 75.2936 15.8167C88.3826 28.9057 88.3826 50.2001 75.2936 63.2891L55.8031 82.7796C53.46 85.1228 49.661 85.1228 47.3178 82.7796L27.8273 63.2891C21.4916 56.9473 18 48.5239 18 39.5559C18 30.5902 21.4898 22.1627 27.8286 15.8276C27.8309 15.8252 27.8303 15.8212 27.8273 15.8197Z" stroke="white" stroke-width="12" stroke-linecap="round" stroke-linejoin="round" mask="url(#path-4-outside-1_0_1)"/>
<mask id="path-5-inside-2_0_1" fill="white">
<path d="M60 26H44C42.8954 26 42 26.8954 42 28V52.1096C42 52.4998 42.4271 52.7396 42.7603 52.5365L52 46.9032L61.2397 52.5365C61.5729 52.7396 62 52.4998 62 52.1096V28C62 26.8954 61.1046 26 60 26Z"/>
</mask>
<path d="M60 26H44C42.8954 26 42 26.8954 42 28V52.1096C42 52.4998 42.4271 52.7396 42.7603 52.5365L52 46.9032L61.2397 52.5365C61.5729 52.7396 62 52.4998 62 52.1096V28C62 26.8954 61.1046 26 60 26Z" fill="white" stroke="white" stroke-width="2" stroke-linecap="round" stroke-linejoin="round" mask="url(#path-5-inside-2_0_1)"/>
</svg>
