<svg width="239" height="55" viewBox="0 0 239 55" fill="none" xmlns="http://www.w3.org/2000/svg">
<path d="M236.644 10.2635C237.372 10.2635 238.044 10.8795 238.044 11.6635V36.3595C238.044 45.2635 235.3 50.7515 227.348 53.1595C224.772 53.9435 220.628 54.3355 217.604 54.0555C213.74 53.7195 209.54 52.3195 206.292 50.2475C205.788 49.9115 205.396 49.2955 205.732 48.3995C206.012 47.7835 207.636 44.0315 207.86 43.4715C208.308 42.6315 209.092 42.5755 209.82 42.9675C212.452 44.1995 214.58 45.4875 217.268 45.6555C223.596 46.0475 226.732 43.5835 226.9 40.5595C227.012 39.0475 227.012 38.0955 227.012 38.0955C225.948 38.7675 224.772 39.3835 223.596 39.8315C222.084 40.3915 220.404 40.6715 218.724 40.6715C216.988 40.6715 215.364 40.3915 213.908 39.8315C211.668 38.9915 209.708 37.5915 208.196 35.7435C205.844 32.9435 204.444 29.1915 204.444 25.0475C204.444 16.4235 210.436 9.47949 218.724 9.47949C221.748 9.47949 225.78 11.3835 227.012 13.0635V11.6635C227.012 10.8795 227.628 10.2635 228.356 10.2635H236.644ZM221.132 18.2155C216.708 18.2155 215.476 22.5835 215.476 25.0475C215.476 29.2475 217.828 31.8235 221.132 31.8235C224.94 31.8235 227.012 28.6315 227.012 25.0475C227.012 22.4715 225.892 18.2155 221.132 18.2155Z" fill="#05CBBE"/>
<path d="M183.722 9.47949C192.514 9.47949 199.906 16.4235 199.906 25.0475C199.906 33.6715 192.514 40.6715 183.722 40.6715C174.93 40.6715 167.538 33.6715 167.538 25.0475C167.538 16.4235 174.93 9.47949 183.722 9.47949ZM183.722 31.4315C187.138 31.4315 189.882 28.5755 189.882 25.0475C189.882 21.5195 187.138 18.6635 183.722 18.6635C180.362 18.6635 177.618 21.5195 177.618 25.0475C177.618 28.5755 180.362 31.4315 183.722 31.4315Z" fill="#05CBBE"/>
<path d="M162.747 30.3678C163.531 30.3678 164.147 30.9838 164.147 31.7678V38.5998C164.147 39.3838 163.531 39.9998 162.747 39.9998H135.587C134.803 39.9998 134.187 39.3838 134.187 38.5998V2.19981C134.187 1.41581 134.803 0.799805 135.587 0.799805H144.379C145.107 0.799805 145.723 1.41581 145.723 2.19981V30.3678H162.747Z" fill="#05CBBE"/>
<path d="M129.031 37.8158C129.143 39.1598 128.751 39.7198 127.855 39.9438C126.343 40.2798 123.599 40.6718 119.679 40.6718C114.415 40.6718 110.271 38.1518 110.271 31.8238C110.271 31.8238 110.271 31.8238 110.271 19.8958H105.735C104.951 19.8958 104.335 19.2798 104.335 18.4958V11.6078C104.335 10.8798 104.951 10.2638 105.735 10.2638H110.271V4.10377C110.271 3.37576 110.943 2.75977 111.671 2.75977H119.959C120.687 2.75977 121.303 3.37576 121.303 4.10377C121.303 4.10377 121.303 6.73576 121.303 10.2638H126.231C127.015 10.2638 127.631 10.8798 127.631 11.6078V18.4958C127.631 19.2798 127.015 19.8958 126.231 19.8958H121.303C121.303 23.4238 121.303 26.2798 121.303 26.9518C121.303 31.2638 122.255 31.6558 127.127 31.0398C128.191 30.8718 128.359 31.4878 128.471 32.2718C128.583 32.8878 128.919 36.4718 129.031 37.8158Z" fill="#05CBBE"/>
<path d="M85.308 9.47949C94.1 9.47949 101.492 16.4235 101.492 25.0475C101.492 33.6715 94.1 40.6715 85.308 40.6715C76.516 40.6715 69.124 33.6715 69.124 25.0475C69.124 16.4235 76.516 9.47949 85.308 9.47949ZM85.308 31.4315C88.724 31.4315 91.468 28.5755 91.468 25.0475C91.468 21.5195 88.724 18.6635 85.308 18.6635C81.948 18.6635 79.204 21.5195 79.204 25.0475C79.204 28.5755 81.948 31.4315 85.308 31.4315Z" fill="#05CBBE"/>
<path d="M48.4018 9.47949C57.1938 9.47949 64.5858 16.4235 64.5858 25.0475C64.5858 33.6715 57.1938 40.6715 48.4018 40.6715C39.6098 40.6715 32.2178 33.6715 32.2178 25.0475C32.2178 16.4235 39.6098 9.47949 48.4018 9.47949ZM48.4018 31.4315C51.8178 31.4315 54.5618 28.5755 54.5618 25.0475C54.5618 21.5195 51.8178 18.6635 48.4018 18.6635C45.0418 18.6635 42.2978 21.5195 42.2978 25.0475C42.2978 28.5755 45.0418 31.4315 48.4018 31.4315Z" fill="#05CBBE"/>
<path d="M27.9923 0.799805C28.7203 0.799805 29.3363 1.41581 29.3363 2.19981V9.03181C29.3363 9.8158 28.7203 10.4318 27.9923 10.4318H12.5363V15.5838H25.0243C25.8083 15.5838 26.4243 16.1998 26.4243 16.9838V23.8158C26.4243 24.5998 25.8083 25.2158 25.0243 25.2158H12.5363V38.5998C12.5363 39.3838 11.8643 39.9998 11.1363 39.9998H2.34434C1.61634 39.9998 0.944336 39.3838 0.944336 38.5998V2.19981C0.944336 1.41581 1.56034 0.799805 2.34434 0.799805H2.90434H27.9923Z" fill="#05CBBE"/>
</svg>
