<svg width="104" height="126" viewBox="0 0 104 126" fill="none" xmlns="http://www.w3.org/2000/svg">
<path d="M5 82H62.75C68.1348 82 72.5 86.3652 72.5 91.75V91.75C72.5 97.1348 68.1348 101.5 62.75 101.5H40.5C35.2533 101.5 31 105.753 31 111V111C31 116.247 35.2533 120.5 40.5 120.5H99" stroke="#05CBBE" stroke-width="10" stroke-linecap="round"/>
<path d="M25.706 65.4104L25.705 65.4094C18.8079 58.5058 15 49.32 15 39.5559C15 29.8891 18.7326 20.7812 25.5091 13.9058C25.5701 13.8318 25.6353 13.76 25.7047 13.6906L25.706 65.4104ZM25.706 65.4104L45.1965 84.9009C48.7112 88.4157 54.4097 88.4157 57.9244 84.9009L77.4149 65.4104C91.6755 51.1499 91.6755 27.9559 77.4149 13.6954C63.1566 -0.56295 39.9605 -0.565561 25.7052 13.6901L25.706 65.4104ZM29.1693 13.1366C29.5108 13.3074 29.8011 13.5294 30.0386 13.7868C30.0385 13.7869 30.0384 13.787 30.0383 13.7871C29.8001 13.529 29.5097 13.3069 29.1693 13.1366Z" fill="#05CBBE" stroke="white" stroke-width="6" stroke-linecap="round" stroke-linejoin="round"/>
<path d="M52.2603 46.4763C52.1004 46.3789 51.8996 46.3789 51.7397 46.4763L42.5 52.1096L42.5 28C42.5 27.1716 43.1716 26.5 44 26.5H60C60.8284 26.5 61.5 27.1716 61.5 28L61.5 52.1096L52.2603 46.4763Z" fill="white" stroke="white" stroke-linecap="round" stroke-linejoin="round"/>
</svg>
