<svg width="119" height="20" viewBox="0 0 119 20" fill="none" xmlns="http://www.w3.org/2000/svg">
<path d="M9.99789 -9.53674e-07C10.2579 -9.53674e-07 10.4779 0.22 10.4779 0.5V2.94C10.4779 3.22 10.2579 3.44 9.99789 3.44H4.47789V5.28H8.93789C9.21789 5.28 9.43789 5.5 9.43789 5.78V8.22C9.43789 8.5 9.21789 8.72 8.93789 8.72H4.47789V13.5C4.47789 13.78 4.23789 14 3.97789 14H0.837891C0.577891 14 0.337891 13.78 0.337891 13.5V0.5C0.337891 0.22 0.557891 -9.53674e-07 0.837891 -9.53674e-07H1.03789H9.99789ZM16.9655 3.1C20.1055 3.1 22.7455 5.58 22.7455 8.66C22.7455 11.74 20.1055 14.24 16.9655 14.24C13.8255 14.24 11.1855 11.74 11.1855 8.66C11.1855 5.58 13.8255 3.1 16.9655 3.1ZM16.9655 10.94C18.1855 10.94 19.1655 9.92 19.1655 8.66C19.1655 7.4 18.1855 6.38 16.9655 6.38C15.7655 6.38 14.7855 7.4 14.7855 8.66C14.7855 9.92 15.7655 10.94 16.9655 10.94ZM29.8249 3.1C32.9649 3.1 35.6049 5.58 35.6049 8.66C35.6049 11.74 32.9649 14.24 29.8249 14.24C26.6849 14.24 24.0449 11.74 24.0449 8.66C24.0449 5.58 26.6849 3.1 29.8249 3.1ZM29.8249 10.94C31.0449 10.94 32.0249 9.92 32.0249 8.66C32.0249 7.4 31.0449 6.38 29.8249 6.38C28.6249 6.38 27.6449 7.4 27.6449 8.66C27.6449 9.92 28.6249 10.94 29.8249 10.94ZM45.1188 13.22C45.1588 13.7 45.0188 13.9 44.6988 13.98C44.1588 14.1 43.1788 14.24 41.7788 14.24C39.8988 14.24 38.4188 13.34 38.4188 11.08C38.4188 11.08 38.4188 11.08 38.4188 6.82H36.7988C36.5188 6.82 36.2988 6.6 36.2988 6.32V3.86C36.2988 3.6 36.5188 3.38 36.7988 3.38H38.4188V1.18C38.4188 0.919999 38.6588 0.7 38.9188 0.7H41.8788C42.1388 0.7 42.3588 0.919999 42.3588 1.18C42.3588 1.18 42.3588 2.12 42.3588 3.38H44.1188C44.3988 3.38 44.6188 3.6 44.6188 3.86V6.32C44.6188 6.6 44.3988 6.82 44.1188 6.82H42.3588C42.3588 8.08 42.3588 9.1 42.3588 9.34C42.3588 10.88 42.6988 11.02 44.4388 10.8C44.8188 10.74 44.8788 10.96 44.9188 11.24C44.9588 11.46 45.0788 12.74 45.1188 13.22ZM56.8387 10.56C57.1187 10.56 57.3387 10.78 57.3387 11.06V13.5C57.3387 13.78 57.1187 14 56.8387 14H47.1387C46.8587 14 46.6387 13.78 46.6387 13.5V0.5C46.6387 0.22 46.8587 -9.53674e-07 47.1387 -9.53674e-07H50.2787C50.5387 -9.53674e-07 50.7587 0.22 50.7587 0.5V10.56H56.8387ZM64.0085 3.1C67.1485 3.1 69.7885 5.58 69.7885 8.66C69.7885 11.74 67.1485 14.24 64.0085 14.24C60.8685 14.24 58.2285 11.74 58.2285 8.66C58.2285 5.58 60.8685 3.1 64.0085 3.1ZM64.0085 10.94C65.2285 10.94 66.2085 9.92 66.2085 8.66C66.2085 7.4 65.2285 6.38 64.0085 6.38C62.8085 6.38 61.8285 7.4 61.8285 8.66C61.8285 9.92 62.8085 10.94 64.0085 10.94ZM82.5879 3.38C82.8479 3.38 83.0879 3.6 83.0879 3.88V12.7C83.0879 15.88 82.1079 17.84 79.2679 18.7C78.3479 18.98 76.8679 19.12 75.7879 19.02C74.4079 18.9 72.9079 18.4 71.7479 17.66C71.5679 17.54 71.4279 17.32 71.5479 17C71.6479 16.78 72.2279 15.44 72.3079 15.24C72.4679 14.94 72.7479 14.92 73.0079 15.06C73.9479 15.5 74.7079 15.96 75.6679 16.02C77.9279 16.16 79.0479 15.28 79.1079 14.2C79.1479 13.66 79.1479 13.32 79.1479 13.32C78.7679 13.56 78.3479 13.78 77.9279 13.94C77.3879 14.14 76.7879 14.24 76.1879 14.24C75.5679 14.24 74.9879 14.14 74.4679 13.94C73.6679 13.64 72.9679 13.14 72.4279 12.48C71.5879 11.48 71.0879 10.14 71.0879 8.66C71.0879 5.58 73.2279 3.1 76.1879 3.1C77.2679 3.1 78.7079 3.78 79.1479 4.38V3.88C79.1479 3.6 79.3679 3.38 79.6279 3.38H82.5879ZM77.0479 6.22C75.4679 6.22 75.0279 7.78 75.0279 8.66C75.0279 10.16 75.8679 11.08 77.0479 11.08C78.4079 11.08 79.1479 9.94 79.1479 8.66C79.1479 7.74 78.7479 6.22 77.0479 6.22ZM96.0918 3.38C96.3518 3.38 96.5918 3.6 96.5918 3.88V12.7C96.5918 15.88 95.6118 17.84 92.7718 18.7C91.8518 18.98 90.3718 19.12 89.2918 19.02C87.9118 18.9 86.4118 18.4 85.2518 17.66C85.0718 17.54 84.9318 17.32 85.0518 17C85.1518 16.78 85.7318 15.44 85.8118 15.24C85.9718 14.94 86.2518 14.92 86.5118 15.06C87.4518 15.5 88.2118 15.96 89.1718 16.02C91.4318 16.16 92.5518 15.28 92.6118 14.2C92.6518 13.66 92.6518 13.32 92.6518 13.32C92.2718 13.56 91.8518 13.78 91.4318 13.94C90.8918 14.14 90.2918 14.24 89.6918 14.24C89.0718 14.24 88.4918 14.14 87.9718 13.94C87.1718 13.64 86.4718 13.14 85.9318 12.48C85.0918 11.48 84.5918 10.14 84.5918 8.66C84.5918 5.58 86.7318 3.1 89.6918 3.1C90.7718 3.1 92.2118 3.78 92.6518 4.38V3.88C92.6518 3.6 92.8718 3.38 93.1318 3.38H96.0918ZM90.5518 6.22C88.9718 6.22 88.5318 7.78 88.5318 8.66C88.5318 10.16 89.3718 11.08 90.5518 11.08C91.9118 11.08 92.6518 9.94 92.6518 8.66C92.6518 7.74 92.2518 6.22 90.5518 6.22ZM107.38 9.9C106.94 9.9 105.4 9.9 101.84 9.9C102.24 11.1 103.4 11.44 104.16 11.46C105.38 11.5 106.1 11.26 106.82 10.94C107.08 10.84 107.36 10.84 107.52 11.14C107.6 11.34 107.98 12.38 108.08 12.62C108.2 12.94 108.06 13.16 107.88 13.28C106.72 14 105.1 14.24 103.72 14.24C99.9804 14.24 97.9004 11.74 97.9004 8.66C97.9004 5.58 99.9604 3.1 103.56 3.1C106.7 3.1 108.56 5.58 108.56 8.66C108.56 9.56 108.46 9.9 107.38 9.9ZM103.56 5.86C102.46 5.86 101.76 6.66 101.76 7.9H104.98C104.98 6.68 104.5 5.86 103.56 5.86ZM118.441 3.34C118.681 3.46 118.661 3.78 118.641 4.06C118.601 4.42 118.421 6.42 118.381 6.74C118.321 7.2 118.041 7.42 117.641 7.3C117.221 7.16 116.521 6.96 115.741 6.98C115.001 7 113.821 7.32 113.821 9.02C113.821 9.56 113.821 13.52 113.821 13.52L113.801 13.54V13.52C113.801 13.78 113.581 14 113.321 14H110.361C110.101 14 109.861 13.78 109.861 13.52V3.88C109.861 3.6 110.101 3.38 110.361 3.38H113.321C113.581 3.38 113.801 3.6 113.801 3.88V4.38C114.141 3.9 115.481 3.1 116.861 3.1C117.641 3.1 118.181 3.24 118.441 3.34Z" fill="#333333"/>
</svg>
