<svg width="14" height="17" viewBox="0 0 14 17" fill="none" xmlns="http://www.w3.org/2000/svg">
<path d="M2.75614 2.81741C5.09549 0.394197 8.90424 0.394197 11.2447 2.81741C13.5851 5.24062 13.5851 9.18296 11.2447 11.6062L7.00095 16L2.75722 11.6062C1.62433 10.4321 1 8.87264 1 7.21235C1 5.55207 1.62433 3.99149 2.7583 2.81853L2.75614 2.81741Z" stroke="#808080" stroke-linecap="round" stroke-linejoin="round"/>
<path d="M7.00156 9.40156C8.32705 9.40156 9.40156 8.32705 9.40156 7.00156C9.40156 5.67608 8.32705 4.60156 7.00156 4.60156C5.67608 4.60156 4.60156 5.67608 4.60156 7.00156C4.60156 8.32705 5.67608 9.40156 7.00156 9.40156Z" stroke="#808080" stroke-miterlimit="10"/>
</svg>
